 <svg  version="1.0" xmlns="http://www.w3.org/2000/svg"  width="300.000000pt" height="303.000000pt" viewBox="0 0 300.000000 303.000000"  preserveAspectRatio="xMidYMid meet">  <g transform="translate(0.000000,303.000000) scale(0.050000,-0.050000)" fill="#0033ff" stroke="none"> <path d="M2720 5767 c-437 -55 -708 -136 -1043 -311 -1511 -788 -1923 -2809 -848 -4154 935 -1171 2698 -1368 3869 -433 1112 888 1374 2517 594 3688 -542 813 -1638 1329 -2572 1210z m645 -358 c2307 -346 2803 -3523 710 -4545 -215 -105 -208 -106 -235 31 -36 179 -73 321 -210 805 -70 248 -200 710 -290 1028 l-162 577 48 53 c299 320 -158 755 -468 445 -126 -126 -129 -299 -7 -445 51 -60 64 -90 51 -115 -10 -18 -37 -109 -62 -203 -24 -93 -57 -215 -73 -270 -31 -108 -59 -204 -136 -470 -27 -93 -62 -219 -78 -280 -17 -60 -84 -299 -150 -530 -65 -231 -135 -478 -153 -550 -19 -71 -38 -142 -42 -157 -23 -77 -625 317 -866 567 -1614 1682 -189 4407 2123 4059z m-236 -1763 c5 -14 -1 -31 -13 -38 -13 -9 -17 -5 -8 9 8 13 5 23 -7 23 -11 0 -21 -13 -21 -29 0 -19 -12 -26 -35 -18 -30 9 -30 7 -5 -11 17 -12 48 -22 70 -23 22 -1 29 -7 15 -12 -14 -6 -20 -19 -14 -29 6 -10 -7 -18 -30 -18 -22 0 -41 -9 -41 -20 0 -30 -84 -23 -128 10 -21 16 -48 23 -60 16 -12 -6 -11 0 3 15 18 20 18 33 1 54 -12 15 -14 26 -4 24 56 -11 97 2 68 21 -26 17 -25 19 5 20 19 0 35 7 35 16 0 26 159 16 169 -10z m-191 -194 c13 -16 43 -23 68 -17 44 10 44 10 4 -23 -33 -26 -34 -30 -5 -20 25 9 35 2 35 -25 -1 -64 -27 -86 -59 -51 -26 28 -26 30 5 18 19 -7 34 -5 34 4 0 10 -22 22 -50 27 -27 5 -50 0 -50 -11 0 -11 -7 -14 -15 -6 -8 9 1 27 21 42 35 25 34 28 -9 58 -25 18 -36 32 -24 32 12 0 33 -13 45 -28z m113 -522 l14 -120 -44 40 c-74 66 -83 99 -57 212 l24 105 24 -59 c13 -32 31 -112 39 -178z m8 -359 c-2 -26 -193 -151 -230 -151 -23 0 -23 13 0 78 16 43 34 121 42 172 l14 93 88 -85 c48 -48 86 -96 86 -107z m140 -276 c43 -173 86 -326 102 -369 33 -85 -21 -68 -236 74 -256 170 -251 151 -65 278 181 123 173 122 199 17z m-195 -480 c206 -124 204 -120 75 -190 -56 -30 -185 -106 -285 -169 -168 -105 -234 -134 -234 -105 0 6 32 136 70 289 39 153 70 297 70 321 l0 43 65 -42 c36 -23 143 -89 239 -147z m405 -340 c58 -260 118 -492 142 -550 41 -99 13 -115 -103 -58 -54 26 -206 95 -338 153 -323 141 -332 145 -319 157 19 19 579 342 594 342 8 1 19 -19 24 -44z m-46 -814 c23 -13 100 2 255 47 l222 67 3 -48 c4 -80 6 -88 33 -104 32 -20 -102 -63 -195 -63 -38 0 -58 -8 -51 -20 7 -12 6 -20 -4 -18 -46 8 -107 -4 -98 -19 6 -10 -17 -14 -52 -10 -57 6 -95 34 -96 70 0 7 20 8 45 2 42 -12 43 -10 11 22 -30 30 -66 32 -310 21 -278 -12 -668 26 -713 71 -15 15 9 154 59 343 8 28 702 -253 891 -361z m-1093 59 c55 -20 88 -38 74 -38 -15 -1 -21 -11 -14 -22 29 -46 24 -94 -12 -117 -23 -14 -38 -15 -38 -3 0 11 -18 20 -39 20 -86 0 -145 45 -132 99 7 28 14 62 15 76 3 32 24 30 146 -15z"/> <path d="M1776 4605 c-533 -515 -606 -1393 -161 -1944 227 -280 335 -344 433 -256 102 91 92 135 -75 314 -466 497 -462 1173 9 1690 150 165 168 221 94 290 -80 75 -146 55 -300 -94z"/> <path d="M3929 4691 c-80 -80 -64 -133 89 -302 456 -499 464 -1152 21 -1640 -161 -177 -187 -277 -89 -341 73 -48 138 -22 275 108 578 550 590 1470 28 2055 -182 189 -235 209 -324 120z"/> <path d="M2213 4231 c-350 -325 -369 -941 -39 -1281 175 -181 377 17 215 211 -212 254 -221 510 -28 788 108 156 125 241 62 298 -53 48 -148 41 -210 -16z"/> <path d="M3561 4227 c-53 -68 -52 -106 8 -189 233 -321 263 -565 98 -795 -112 -157 -137 -224 -104 -283 146 -259 497 175 497 613 0 414 -338 858 -499 654z"/> </g> </svg> 